<?xml version="1.0"?>
<svg xmlns="http://www.w3.org/2000/svg" xmlns:xlink="http://www.w3.org/1999/xlink" xmlns:svgjs="http://svgjs.com/svgjs" version="1.1" width="512" height="512" x="0" y="0" viewBox="0 0 512 512" style="enable-background:new 0 0 512 512" xml:space="preserve" class=""><g><g xmlns="http://www.w3.org/2000/svg" id="outline"><path d="M488,312V300.426a37.75,37.75,0,0,0-11.13-26.869L456,252.687V206.624A23.982,23.982,0,0,0,465.874,168a23.958,23.958,0,0,0,0-32,23.958,23.958,0,0,0,0-32A23.982,23.982,0,0,0,456,65.376V24a8,8,0,0,0-8-8H352a8,8,0,0,0-8,8v8H332.427a37.753,37.753,0,0,0-26.871,11.13L284.687,64H182.624A23.982,23.982,0,0,0,144,54.126a23.958,23.958,0,0,0-32,0,23.958,23.958,0,0,0-32,0A23.982,23.982,0,0,0,41.376,64H24a8,8,0,0,0-8,8v96a8,8,0,0,0,8,8H40v16a7.994,7.994,0,0,0,.845,3.578L72,257.889v23.487A23.982,23.982,0,0,0,62.126,320a23.958,23.958,0,0,0,0,32,23.958,23.958,0,0,0,0,32A23.982,23.982,0,0,0,72,422.624V464a8,8,0,0,0,8,8h96a8,8,0,0,0,8-8v-8h11.573a37.753,37.753,0,0,0,26.871-11.13L243.313,424h70.063a24,24,0,0,0,38.633,9.882A23.957,23.957,0,0,0,384,433.874a23.958,23.958,0,0,0,32,0A23.982,23.982,0,0,0,454.624,424H488a8,8,0,0,0,8-8V320A8,8,0,0,0,488,312ZM360,32h80V64H360ZM288,80a8,8,0,0,0,5.657-2.343L316.87,54.443A21.859,21.859,0,0,1,332.427,48H344V72a8,8,0,0,0,8,8h96a8,8,0,0,1,0,16H400a8,8,0,0,0,0,16h48a8,8,0,0,1,0,16H400a8,8,0,0,0,0,16h48a8,8,0,0,1,0,16H400a8,8,0,0,0,0,16h48a8,8,0,0,1,0,16H329.889l-62.311-31.155A7.994,7.994,0,0,0,264,160H184V80Zm24.845,212.422A7.994,7.994,0,0,0,312,296v16H265.889l-62.311-31.155A7.994,7.994,0,0,0,200,280H184V235.313l20.87-20.87A37.75,37.75,0,0,0,216,187.574V176h46.111l62.311,31.155A7.994,7.994,0,0,0,328,208h16v22.111ZM32,160V80h8v80Zm24,30.111V72a8,8,0,0,1,16,0v48a8,8,0,0,0,16,0V72a8,8,0,0,1,16,0v48a8,8,0,0,0,16,0V72a8,8,0,0,1,16,0v48a8,8,0,0,0,16,0V72a8,8,0,0,1,16,0v96a8,8,0,0,0,8,8h24v11.574a21.854,21.854,0,0,1-6.444,15.556l-23.213,23.213A8,8,0,0,0,168,232v48H88V256a7.994,7.994,0,0,0-.845-3.578ZM168,456H88V424h80Zm72-48a8,8,0,0,0-5.657,2.343L211.13,433.557A21.855,21.855,0,0,1,195.573,440H184V416a8,8,0,0,0-8-8H80a8,8,0,0,1,0-16h48a8,8,0,0,0,0-16H80a8,8,0,0,1,0-16h48a8,8,0,0,0,0-16H80a8,8,0,0,1,0-16h48a8,8,0,0,0,0-16H80a8,8,0,0,1,0-16H198.111l62.311,31.155A7.994,7.994,0,0,0,264,328h48v80Zm192,16a8.009,8.009,0,0,1-8-8V368a8,8,0,0,0-16,0v48a8,8,0,0,1-16,0V368a8,8,0,0,0-16,0v48a8,8,0,0,1-16,0V368a8,8,0,0,0-16,0v48a8,8,0,0,1-16,0V297.889l31.155-62.311A7.994,7.994,0,0,0,360,232V208h80v48a8,8,0,0,0,2.343,5.657l23.213,23.213A21.854,21.854,0,0,1,472,300.426V312H448a8,8,0,0,0-8,8v96A8.009,8.009,0,0,1,432,424Zm48-16H456V328h24Z" fill="#e3ca94" data-original="#000000" style="" class=""/><path d="M277.839,216a21.952,21.952,0,0,0-15.625,6.472L256,228.687l-6.214-6.215a22.1,22.1,0,0,0-36.589,8.637,29.821,29.821,0,0,0,9.626,32.6L251,286.247a8,8,0,0,0,9.994,0L289.178,263.7a29.823,29.823,0,0,0,9.625-32.595A22.071,22.071,0,0,0,277.839,216Zm1.344,35.209L256,269.755l-23.182-18.546a13.759,13.759,0,0,1-4.441-15.04,6.1,6.1,0,0,1,10.095-2.383l11.871,11.871a8,8,0,0,0,11.314,0l11.871-11.871a6.1,6.1,0,0,1,10.095,2.383A13.76,13.76,0,0,1,279.183,251.209Z" fill="#e3ca94" data-original="#000000" style="" class=""/></g></g></svg>
